<mxfile host="app.diagrams.net" agent="Mozilla/5.0 (Windows NT 10.0; Win64; x64) AppleWebKit/537.36 (KHTML, like Gecko) Chrome/137.0.0.0 Safari/537.36" version="27.1.6">
  <diagram name="Page-1" id="qT_adrYBhqi54q90mIpr">
    <mxGraphModel dx="1042" dy="527" grid="1" gridSize="10" guides="1" tooltips="1" connect="1" arrows="1" fold="1" page="1" pageScale="1" pageWidth="827" pageHeight="1169" math="0" shadow="0">
      <root>
        <mxCell id="0" />
        <mxCell id="1" parent="0" />
        <mxCell id="8S9vRplQvPWtPSLh2pSm-16" value="&lt;span style=&quot;font-weight: 700;&quot;&gt;Secure Traffic Analyser&lt;/span&gt;" style="rounded=0;whiteSpace=wrap;html=1;verticalAlign=top;" vertex="1" parent="1">
          <mxGeometry x="280" y="50" width="190" height="340" as="geometry" />
        </mxCell>
        <mxCell id="8S9vRplQvPWtPSLh2pSm-21" style="rounded=0;orthogonalLoop=1;jettySize=auto;html=1;entryX=0;entryY=0.5;entryDx=0;entryDy=0;endArrow=none;startFill=0;" edge="1" parent="1" source="8S9vRplQvPWtPSLh2pSm-4" target="8S9vRplQvPWtPSLh2pSm-10">
          <mxGeometry relative="1" as="geometry" />
        </mxCell>
        <mxCell id="8S9vRplQvPWtPSLh2pSm-23" style="rounded=0;orthogonalLoop=1;jettySize=auto;html=1;endArrow=none;startFill=0;" edge="1" parent="1" source="8S9vRplQvPWtPSLh2pSm-4" target="8S9vRplQvPWtPSLh2pSm-12">
          <mxGeometry relative="1" as="geometry" />
        </mxCell>
        <mxCell id="8S9vRplQvPWtPSLh2pSm-24" style="rounded=0;orthogonalLoop=1;jettySize=auto;html=1;entryX=0;entryY=0.5;entryDx=0;entryDy=0;endArrow=none;startFill=0;" edge="1" parent="1" source="8S9vRplQvPWtPSLh2pSm-4" target="8S9vRplQvPWtPSLh2pSm-11">
          <mxGeometry relative="1" as="geometry" />
        </mxCell>
        <mxCell id="8S9vRplQvPWtPSLh2pSm-4" value="&lt;span style=&quot;font-family: Aptos, Aptos_EmbeddedFont, Aptos_MSFontService, sans-serif; font-variant-ligatures: none; text-align: justify; white-space: pre-wrap; background-color: rgb(255, 255, 255);&quot;&gt;&lt;font style=&quot;font-size: 12px;&quot;&gt;Analyste réseau&lt;/font&gt;&lt;/span&gt;" style="shape=umlActor;verticalLabelPosition=bottom;verticalAlign=top;html=1;outlineConnect=0;" vertex="1" parent="1">
          <mxGeometry x="130" y="180" width="30" height="60" as="geometry" />
        </mxCell>
        <mxCell id="8S9vRplQvPWtPSLh2pSm-27" style="rounded=0;orthogonalLoop=1;jettySize=auto;html=1;entryX=1;entryY=0.5;entryDx=0;entryDy=0;endArrow=none;startFill=0;" edge="1" parent="1" source="8S9vRplQvPWtPSLh2pSm-5" target="8S9vRplQvPWtPSLh2pSm-14">
          <mxGeometry relative="1" as="geometry" />
        </mxCell>
        <mxCell id="8S9vRplQvPWtPSLh2pSm-28" style="rounded=0;orthogonalLoop=1;jettySize=auto;html=1;exitX=0.5;exitY=0.5;exitDx=0;exitDy=0;exitPerimeter=0;entryX=1;entryY=0.5;entryDx=0;entryDy=0;endArrow=none;startFill=0;" edge="1" parent="1" source="8S9vRplQvPWtPSLh2pSm-5" target="8S9vRplQvPWtPSLh2pSm-13">
          <mxGeometry relative="1" as="geometry" />
        </mxCell>
        <mxCell id="8S9vRplQvPWtPSLh2pSm-29" style="rounded=0;orthogonalLoop=1;jettySize=auto;html=1;entryX=1;entryY=0.5;entryDx=0;entryDy=0;endArrow=none;startFill=0;" edge="1" parent="1" source="8S9vRplQvPWtPSLh2pSm-5" target="8S9vRplQvPWtPSLh2pSm-11">
          <mxGeometry relative="1" as="geometry" />
        </mxCell>
        <mxCell id="8S9vRplQvPWtPSLh2pSm-31" style="rounded=0;orthogonalLoop=1;jettySize=auto;html=1;entryX=1;entryY=0.5;entryDx=0;entryDy=0;endArrow=none;startFill=0;" edge="1" parent="1" source="8S9vRplQvPWtPSLh2pSm-5" target="8S9vRplQvPWtPSLh2pSm-10">
          <mxGeometry relative="1" as="geometry" />
        </mxCell>
        <mxCell id="8S9vRplQvPWtPSLh2pSm-5" value="&lt;span style=&quot;font-family: Aptos, Aptos_EmbeddedFont, Aptos_MSFontService, sans-serif; font-variant-ligatures: none; text-align: justify; white-space: pre-wrap; background-color: rgb(255, 255, 255);&quot;&gt;&lt;font style=&quot;font-size: 12px;&quot;&gt;Administrateur système&lt;/font&gt;&lt;/span&gt;" style="shape=umlActor;verticalLabelPosition=bottom;verticalAlign=top;html=1;outlineConnect=0;" vertex="1" parent="1">
          <mxGeometry x="550" y="190" width="30" height="60" as="geometry" />
        </mxCell>
        <mxCell id="8S9vRplQvPWtPSLh2pSm-32" style="rounded=0;orthogonalLoop=1;jettySize=auto;html=1;entryX=1;entryY=0.5;entryDx=0;entryDy=0;endArrow=none;startFill=0;" edge="1" parent="1" source="8S9vRplQvPWtPSLh2pSm-6" target="8S9vRplQvPWtPSLh2pSm-14">
          <mxGeometry relative="1" as="geometry" />
        </mxCell>
        <mxCell id="8S9vRplQvPWtPSLh2pSm-6" value="&lt;span style=&quot;font-family: Aptos, Aptos_EmbeddedFont, Aptos_MSFontService, sans-serif; font-variant-ligatures: none; text-align: justify; white-space: pre-wrap; background-color: rgb(255, 255, 255);&quot;&gt;&lt;font style=&quot;font-size: 12px;&quot;&gt;Responsable sécurité&lt;/font&gt;&lt;/span&gt;" style="shape=umlActor;verticalLabelPosition=bottom;verticalAlign=top;html=1;outlineConnect=0;" vertex="1" parent="1">
          <mxGeometry x="550" y="60" width="30" height="60" as="geometry" />
        </mxCell>
        <mxCell id="8S9vRplQvPWtPSLh2pSm-26" style="rounded=0;orthogonalLoop=1;jettySize=auto;html=1;entryX=1;entryY=0.5;entryDx=0;entryDy=0;endArrow=none;startFill=0;" edge="1" parent="1" source="8S9vRplQvPWtPSLh2pSm-7" target="8S9vRplQvPWtPSLh2pSm-11">
          <mxGeometry relative="1" as="geometry" />
        </mxCell>
        <mxCell id="8S9vRplQvPWtPSLh2pSm-7" value="&lt;span style=&quot;font-family: Aptos, Aptos_EmbeddedFont, Aptos_MSFontService, sans-serif; font-variant-ligatures: none; text-align: justify; white-space: pre-wrap; background-color: rgb(255, 255, 255);&quot;&gt;&lt;font style=&quot;font-size: 12px;&quot;&gt;Utilisateur standard&lt;/font&gt;&lt;/span&gt;" style="shape=umlActor;verticalLabelPosition=bottom;verticalAlign=top;html=1;outlineConnect=0;" vertex="1" parent="1">
          <mxGeometry x="550" y="315" width="30" height="60" as="geometry" />
        </mxCell>
        <mxCell id="8S9vRplQvPWtPSLh2pSm-10" value="&lt;span style=&quot;font-family: Aptos, Aptos_EmbeddedFont, Aptos_MSFontService, sans-serif; font-variant-ligatures: none; text-align: justify; white-space-collapse: preserve; background-color: rgb(255, 255, 255);&quot;&gt;&lt;font style=&quot;font-size: 12px;&quot;&gt;Consulter trafic en temps réel&lt;/font&gt;&lt;/span&gt;" style="ellipse;whiteSpace=wrap;html=1;" vertex="1" parent="1">
          <mxGeometry x="315" y="80" width="120" height="50" as="geometry" />
        </mxCell>
        <mxCell id="8S9vRplQvPWtPSLh2pSm-11" value="&lt;span style=&quot;font-family: Aptos, Aptos_EmbeddedFont, Aptos_MSFontService, sans-serif; font-variant-ligatures: none; text-align: justify; white-space-collapse: preserve; background-color: rgb(255, 255, 255);&quot;&gt;&lt;font style=&quot;font-size: 11px;&quot;&gt;Accéder aux statistiques système&lt;/font&gt;&lt;/span&gt;" style="ellipse;whiteSpace=wrap;html=1;" vertex="1" parent="1">
          <mxGeometry x="315" y="320" width="120" height="50" as="geometry" />
        </mxCell>
        <mxCell id="8S9vRplQvPWtPSLh2pSm-12" value="&lt;span style=&quot;font-family: Aptos, Aptos_EmbeddedFont, Aptos_MSFontService, sans-serif; font-variant-ligatures: none; text-align: justify; white-space-collapse: preserve; background-color: rgb(255, 255, 255);&quot;&gt;&lt;font style=&quot;font-size: 12px;&quot;&gt;Filtrer les logs&lt;/font&gt;&lt;/span&gt;" style="ellipse;whiteSpace=wrap;html=1;" vertex="1" parent="1">
          <mxGeometry x="315" y="140" width="120" height="50" as="geometry" />
        </mxCell>
        <mxCell id="8S9vRplQvPWtPSLh2pSm-13" value="&lt;span style=&quot;font-family: Aptos, Aptos_EmbeddedFont, Aptos_MSFontService, sans-serif; font-variant-ligatures: none; text-align: justify; white-space-collapse: preserve; background-color: rgb(255, 255, 255);&quot;&gt;&lt;font style=&quot;font-size: 12px;&quot;&gt;Exporter les résultats&lt;/font&gt;&lt;/span&gt;" style="ellipse;whiteSpace=wrap;html=1;" vertex="1" parent="1">
          <mxGeometry x="315" y="260" width="120" height="50" as="geometry" />
        </mxCell>
        <mxCell id="8S9vRplQvPWtPSLh2pSm-14" value="&lt;span style=&quot;font-family: Aptos, Aptos_EmbeddedFont, Aptos_MSFontService, sans-serif; font-variant-ligatures: none; text-align: justify; white-space-collapse: preserve; background-color: rgb(255, 255, 255);&quot;&gt;&lt;font style=&quot;font-size: 12px;&quot;&gt;Recevoir des alertes&lt;/font&gt;&lt;/span&gt;" style="ellipse;whiteSpace=wrap;html=1;" vertex="1" parent="1">
          <mxGeometry x="315" y="200" width="120" height="50" as="geometry" />
        </mxCell>
      </root>
    </mxGraphModel>
  </diagram>
</mxfile>
